<?xml version="1.0" encoding="utf-8"?>
<!-- Generator: Adobe Illustrator 21.1.0, SVG Export Plug-In . SVG Version: 6.00 Build 0)  -->
<svg version="1.1" id="Слой_1" xmlns="http://www.w3.org/2000/svg" xmlns:xlink="http://www.w3.org/1999/xlink" x="0px" y="0px"
	 viewBox="0 0 671.3 191" enable-background="new 0 0 671.3 191" xml:space="preserve">
<path fill="none" stroke="#CCCCCC" stroke-miterlimit="10" d="M191.8,169.5H46.3c-3.3,0-6-2.2-6-5V1"/>
<line fill="none" stroke="#CCCCCC" stroke-miterlimit="10" x1="329.8" y1="169.5" x2="191.1" y2="169.5"/>
<line fill="none" stroke="#CCCCCC" stroke-miterlimit="10" x1="468.5" y1="169.5" x2="329.8" y2="169.5"/>
<line fill="none" stroke="#CCCCCC" stroke-miterlimit="10" x1="669.8" y1="169.5" x2="468.5" y2="169.5"/>
<line fill="none" stroke="#CCCCCC" stroke-miterlimit="10" x1="166.3" y1="170" x2="166.3" y2="1"/>
<line fill="none" stroke="#CCCCCC" stroke-miterlimit="10" x1="417.3" y1="1" x2="417.3" y2="170"/>
<line fill="none" stroke="#CCCCCC" stroke-miterlimit="10" x1="292.3" y1="170" x2="292.3" y2="1"/>
<line fill="none" stroke="#CCCCCC" stroke-miterlimit="10" x1="543.3" y1="1" x2="543.3" y2="170"/>
<line fill="none" stroke="#CCCCCC" stroke-miterlimit="10" x1="669.3" y1="170" x2="669.3" y2="1"/>
<path opacity="0.1" fill="#ED3832" d="M48,169c-4.5,0-8.2-2.2-8.2-5v-3.3l0.7-0.4c24.8-4.5,55-13.4,80.7-15.3
	c22.4-1.6,45.4-1.2,67.1-4.8c11.2-1.9,21.7-4.8,32.9-6.7c19.1-3.3,39.2-3.6,59.1-3.9c22.9-0.3,45.8-0.6,68.7-1
	c27.1-0.4,54.9-0.8,80-6.9c13.9-3.3,26.4-8.3,38.9-13.2c8-3.1,16.2-6.4,21.3-11.2c3.1-2.9,5.6-6.7,11.3-7.6c3.3-0.5,6.7,0.1,10,0.3
	c17.1,0.9,29.3-9.4,45.3-13c5.2-1.2,10.8-1.7,15.8-3.2c6.7-2,11.5-5.7,16.6-9c20.4-13,50.3-20.9,80.5-21.1v125H48z"/>
<path opacity="0.7" fill="none" stroke="#ED3832" stroke-width="3" stroke-linecap="round" stroke-linejoin="round" stroke-miterlimit="10" d="
	M40.3,160.5c24.3-4.5,65.9-13.6,91.3-15.5c22-1.6,44.6-1.2,66-4.8c11-1.9,21.4-4.8,32.3-6.7c18.8-3.3,38.6-3.6,58.1-3.9
	c22.5-0.3,45-0.6,67.6-1c26.6-0.4,54-0.8,78.6-6.9c13.6-3.3,26-8.3,38.2-13.2c7.9-3.1,16-6.4,20.9-11.2c3-2.9,5.5-6.7,11.1-7.6
	c3.2-0.5,6.6,0.1,9.9,0.3c16.8,0.9,28.8-9.4,44.5-13c5.1-1.2,10.7-1.7,15.5-3.2c6.6-2,11.3-5.7,16.3-9c20-13,49.4-20.9,79.2-21.1"/>
<text transform="matrix(1 0 0 1 6.1558 168.0439)" opacity="0.5" font-family="'MyriadPro-Regular'" font-size="12px">0%</text>
<text transform="matrix(1 0 0 1 165.8154 188.0439)" opacity="0.5" font-family="'MyriadPro-Regular'" font-size="12px">2013</text>
<text transform="matrix(1 0 0 1 39.8154 188.0439)" opacity="0.5" font-family="'MyriadPro-Regular'" font-size="12px">2012</text>
<text transform="matrix(1 0 0 1 289.8154 188.0439)" opacity="0.5" font-family="'MyriadPro-Regular'" font-size="12px">2014</text>
<text transform="matrix(1 0 0 1 417.8154 188.0439)" opacity="0.5" font-family="'MyriadPro-Regular'" font-size="12px">2015</text>
<text transform="matrix(1 0 0 1 542.8154 188.0439)" opacity="0.5" font-family="'MyriadPro-Regular'" font-size="12px">2016</text>
<text transform="matrix(1 0 0 1 0 128.0439)" opacity="0.5" font-family="'MyriadPro-Regular'" font-size="12px">10%</text>
<text transform="matrix(1 0 0 1 0 88.0439)" opacity="0.5" font-family="'MyriadPro-Regular'" font-size="12px">20%</text>
<text transform="matrix(1 0 0 1 0 48.0439)" opacity="0.5" font-family="'MyriadPro-Regular'" font-size="12px">30%</text>
<text transform="matrix(1 0 0 1 0 10.0439)" opacity="0.5" font-family="'MyriadPro-Regular'" font-size="12px">40%</text>
<path fill="#ED3832" d="M51.8,159"/>
</svg>
