<?xml version="1.0" encoding="utf-8"?>
<!-- Generator: Adobe Illustrator 21.1.0, SVG Export Plug-In . SVG Version: 6.00 Build 0)  -->
<svg version="1.1" id="Слой_1" xmlns="http://www.w3.org/2000/svg" xmlns:xlink="http://www.w3.org/1999/xlink" x="0px" y="0px"
	 viewBox="0 0 136.5 36.4" enable-background="new 0 0 136.5 36.4" xml:space="preserve">
<symbol  id="New_Symbol_7" viewBox="-84.7 -18.2 136.5 36.4">
	<g>
		<g>
			<g>
				<g>
					<polygon fill="#009444" points="-74.1,-18.2 -84.7,-7.5 -84.7,7.5 -74.1,18.2 -59,18.2 -48.3,7.5 -48.3,-7.5 -59,-18.2 					
						"/>
				</g>
			</g>
			<g>
				<g>
					<path fill="#FFFFFF" d="M-59.7,16.5l9.7-9.7V-6.9l-9.7-9.7h-13.7l-9.7,9.7V6.9l9.7,9.7H-59.7 M-59.2,17.7h-14.7L-84.3,7.3V-7.3
						l10.4-10.4h14.7l10.4,10.4V7.3L-59.2,17.7L-59.2,17.7z"/>
				</g>
			</g>
		</g>
		<g>
			<g>
				<path fill="#FFFFFF" d="M-61.4-6.2l-1.5,0c-0.1,0-0.3,0.1-0.3,0.3s0.1,0.3,0.3,0.3h3c0.9,0,1.6,0.7,1.6,1.6
					c0,0.9-0.7,1.6-1.6,1.6l-2.7,0c-0.1,0-0.3,0.1-0.3,0.3S-62.8-2-62.7-2h3.7c0.8,0.1,1.5,0.7,1.5,1.6c0,0.9-0.7,1.6-1.6,1.6
					l-3.6,0c-0.1,0-0.3,0.1-0.3,0.3s0.1,0.3,0.3,0.3h2.8c0.9,0,1.5,0.7,1.5,1.6c0,0.9-0.7,1.6-1.6,1.6h-6.5c0.7,1.2,1.6,2.5,1.9,4.1
					c0.3,1.6-0.3,2.9-1.1,3.4c-0.8,0.6-1.8,0.2-1.8-0.5c0-1.8-0.9-4.3-5.8-8.3c-0.2-0.1-0.3-0.3-0.4-0.4c-1.3-1.3-2.2-3.1-2.2-5.2
					c0-4,3.2-7.2,7.2-7.2c0,0,0,0,0.1,0c0,0,0,0,0,0h7.1c0.8,0,1.5,0.7,1.5,1.5S-60.6-6.2-61.4-6.2z"/>
			</g>
		</g>
	</g>
	<g>
		<path fill="#313332" d="M-32.7,10.4h2.8l6.2-16.2H-27l-1.5,4h-5.7l-1.5-4h-3.2L-32.7,10.4z M-29.1,0.5l-2.2,6.4l-2.3-6.4H-29.1z"
			/>
		<path fill="#313332" d="M-18.6-6c-0.8,0-1.6,0.2-2.3,0.5c-0.7,0.3-1.3,0.8-1.8,1.3c-0.5,0.6-0.9,1.2-1.2,2
			c-0.3,0.8-0.4,1.6-0.4,2.4s0.1,1.7,0.4,2.4c0.3,0.7,0.6,1.4,1.1,2c0.5,0.6,1,1,1.7,1.3c0.7,0.3,1.4,0.5,2.1,0.5
			c0.9,0,1.7-0.2,2.4-0.6c0.7-0.4,1.3-1,1.7-1.7v6.8h3.1V-2.2c0-0.3,0.1-0.5,0.2-0.7c0.1-0.1,0.3-0.2,0.5-0.2v-2.6
			c-0.5-0.1-1-0.2-1.3-0.2c-0.5,0-1,0.1-1.3,0.4c-0.3,0.3-0.5,0.6-0.6,1.1l-0.1,0.8c-0.4-0.8-1-1.3-1.8-1.7C-17-5.8-17.8-6-18.6-6z
			 M-17.8-3.4c0.3,0,0.6,0,0.9,0.1c0.3,0.1,0.6,0.2,0.8,0.4c0.3,0.2,0.5,0.4,0.7,0.6c0.2,0.2,0.4,0.5,0.5,0.8v2.8
			c-0.1,0.3-0.3,0.6-0.5,0.9c-0.2,0.3-0.5,0.5-0.8,0.7c-0.3,0.2-0.6,0.4-0.9,0.5c-0.3,0.1-0.6,0.2-0.9,0.2c-0.5,0-0.9-0.1-1.3-0.3
			c-0.4-0.2-0.7-0.5-1-0.8c-0.3-0.3-0.5-0.7-0.6-1.2c-0.2-0.4-0.2-0.9-0.2-1.4c0-0.5,0.1-1,0.3-1.4c0.2-0.4,0.4-0.8,0.7-1.1
			c0.3-0.3,0.6-0.6,1-0.8C-18.7-3.3-18.3-3.4-17.8-3.4z"/>
		<path fill="#313332" d="M-4.8-6c-0.8,0-1.6,0.2-2.3,0.5c-0.7,0.3-1.3,0.8-1.8,1.3c-0.5,0.6-0.9,1.2-1.2,2
			c-0.3,0.8-0.4,1.6-0.4,2.4s0.1,1.7,0.4,2.4C-9.8,3.4-9.5,4-9,4.6c0.5,0.6,1,1,1.7,1.3c0.7,0.3,1.4,0.5,2.1,0.5
			c0.9,0,1.7-0.2,2.4-0.6c0.7-0.4,1.3-1,1.7-1.7v6.8h3.1V-2.2c0-0.3,0.1-0.5,0.2-0.7c0.1-0.1,0.3-0.2,0.5-0.2v-2.6
			c-0.5-0.1-1-0.2-1.3-0.2c-0.5,0-1,0.1-1.3,0.4c-0.3,0.3-0.5,0.6-0.6,1.1l-0.1,0.8c-0.4-0.8-1-1.3-1.8-1.7C-3.2-5.8-4-6-4.8-6z
			 M-4-3.4c0.3,0,0.6,0,0.9,0.1C-2.8-3.1-2.5-3-2.3-2.8C-2-2.6-1.8-2.4-1.6-2.2c0.2,0.2,0.4,0.5,0.5,0.8v2.8
			c-0.1,0.3-0.3,0.6-0.5,0.9c-0.2,0.3-0.5,0.5-0.8,0.7C-2.7,3.3-3,3.5-3.3,3.6c-0.3,0.1-0.6,0.2-0.9,0.2c-0.5,0-0.9-0.1-1.3-0.3
			c-0.4-0.2-0.7-0.5-1-0.8C-6.7,2.4-6.9,2-7.1,1.5c-0.2-0.4-0.2-0.9-0.2-1.4c0-0.5,0.1-1,0.3-1.4C-6.9-1.7-6.7-2-6.4-2.3
			c0.3-0.3,0.6-0.6,1-0.8C-4.9-3.3-4.5-3.4-4-3.4z"/>
	</g>
	<g>
		<path fill="#313332" d="M6.7,2.5c0,1,0.2,1.9,0.5,2.9c0.3,1,0.8,1.8,1.5,2.6c0.7,0.8,1.5,1.4,2.4,1.9c0.9,0.5,2,0.7,3.2,0.7
			c1.4,0,2.7-0.3,3.7-1c1-0.7,1.8-1.5,2.3-2.5l-1-0.5c-0.3,0.6-0.6,1-1,1.4c-0.4,0.4-0.8,0.7-1.3,0.9c-0.4,0.2-0.9,0.4-1.4,0.5
			c-0.5,0.1-1,0.2-1.4,0.2c-1,0-1.9-0.2-2.7-0.6c-0.8-0.4-1.5-1-2-1.6C9,6.5,8.6,5.8,8.3,4.9C8.1,4.1,7.9,3.2,7.9,2.4
			c0-1,0.2-1.9,0.5-2.7C8.7-1.2,9.2-2,9.8-2.6c0.6-0.7,1.3-1.2,2.1-1.6c0.8-0.4,1.6-0.6,2.6-0.6c0.5,0,1,0.1,1.5,0.2
			c0.5,0.1,1,0.3,1.5,0.6c0.5,0.3,0.9,0.6,1.3,1c0.4,0.4,0.8,0.9,1,1.4l1-0.5c-0.3-0.6-0.6-1.1-1.1-1.6c-0.5-0.5-1-0.9-1.6-1.2
			c-0.6-0.3-1.2-0.6-1.8-0.7c-0.6-0.2-1.3-0.2-1.9-0.2c-1.1,0-2.1,0.2-3,0.7C10.3-4.7,9.5-4,8.9-3.2C8.2-2.5,7.7-1.6,7.3-0.6
			C6.9,0.4,6.7,1.4,6.7,2.5z"/>
		<path fill="#313332" d="M22.7-5.7v16.2h6.7c0.7,0,1.3-0.1,1.9-0.4c0.6-0.3,1.1-0.7,1.5-1.2c0.4-0.5,0.7-1,1-1.6
			c0.2-0.6,0.4-1.2,0.4-1.8c0-0.7-0.1-1.3-0.3-1.9c-0.2-0.6-0.5-1.1-0.9-1.6c-0.4-0.5-0.9-0.8-1.4-1.1c-0.6-0.3-1.2-0.4-1.9-0.4
			h-5.6v-6.1H22.7z M23.8,1.4h5.6c0.5,0,1,0.1,1.4,0.3c0.4,0.2,0.8,0.5,1.1,0.9c0.3,0.4,0.5,0.8,0.7,1.3s0.2,1,0.2,1.5
			c0,0.5-0.1,1-0.3,1.5c-0.2,0.5-0.4,0.9-0.8,1.3c-0.3,0.4-0.7,0.7-1.1,0.9c-0.4,0.2-0.9,0.3-1.4,0.3h-5.4V1.4z"/>
		<path fill="#313332" d="M50.6-5.7v14L44.2-2.7h-0.7L37.1,8.3v-14h-1.2v16.2h1.2l6.7-11.6l6.7,11.6h1.2V-5.7H50.6z"/>
	</g>
</symbol>
<use xlink:href="#New_Symbol_7"  width="136.5" height="36.4" id="XMLID_45_" x="-84.7" y="-18.2" transform="matrix(1 0 0 -1 84.7388 18.22)" overflow="visible"/>
</svg>
