<?xml version="1.0" encoding="utf-8"?>
<!-- Generator: Adobe Illustrator 21.1.0, SVG Export Plug-In . SVG Version: 6.00 Build 0)  -->
<svg version="1.1" id="Слой_1" xmlns="http://www.w3.org/2000/svg" xmlns:xlink="http://www.w3.org/1999/xlink" x="0px" y="0px"
	 viewBox="0 0 95.2 76.5" enable-background="new 0 0 95.2 76.5" xml:space="preserve">
<g>
	<path fill="#FFFFFF" stroke="#B9CBD1" stroke-width="2" stroke-miterlimit="10" d="M10.8,59.8H1V6.1C1,3.3,3.3,1,6.1,1h83
		c2.8,0,5.1,2.3,5.1,5.1v53.7h-9.3"/>
	<line fill="#FFFFFF" stroke="#B9CBD1" stroke-width="2" stroke-miterlimit="10" x1="1.4" y1="13.8" x2="93.4" y2="13.8"/>
	<circle fill="#FFFFFF" stroke="#B9CBD1" stroke-width="2" stroke-miterlimit="10" cx="22.2" cy="6.8" r="0.7"/>
	<circle fill="#FFFFFF" stroke="#B9CBD1" stroke-width="2" stroke-miterlimit="10" cx="15.1" cy="6.8" r="0.7"/>
	<circle fill="#FFFFFF" stroke="#B9CBD1" stroke-width="2" stroke-miterlimit="10" cx="8" cy="6.8" r="0.7"/>
</g>
<g>
	
		<polyline fill="none" stroke="#009245" stroke-width="1.2565" stroke-linecap="round" stroke-linejoin="round" stroke-miterlimit="10" points="
		67.2,49.4 69.3,40.7 75.8,46.5 	"/>
	<g>
		
			<path fill="none" stroke="#009245" stroke-width="1.2565" stroke-linecap="round" stroke-linejoin="round" stroke-miterlimit="10" d="
			M69.2,40.8c5.6,10.7,2.4,24.1-7.8,31c-11,7.4-25.8,4.5-33.2-6.5s-4.5-25.8,6.5-33.2c7.3-4.9,16.4-5.3,23.9-1.6"/>
		<g>
			<polyline fill="#FFFFFF" stroke="#B9CBD1" stroke-width="2" stroke-miterlimit="10" points="38.4,40.8 46.1,53.9 59.5,54.5 			
				"/>
			
				<ellipse transform="matrix(0.3615 -0.9324 0.9324 0.3615 -20.082 77.8606)" fill="#B9CBD1" cx="46.8" cy="53.6" rx="3.5" ry="3.5"/>
		</g>
	</g>
</g>
</svg>
