<?xml version="1.0" encoding="utf-8"?>
<!-- Generator: Adobe Illustrator 21.1.0, SVG Export Plug-In . SVG Version: 6.00 Build 0)  -->
<svg version="1.1" id="Слой_1" xmlns="http://www.w3.org/2000/svg" xmlns:xlink="http://www.w3.org/1999/xlink" x="0px" y="0px"
	 viewBox="0 0 86.3 104.4" enable-background="new 0 0 86.3 104.4" xml:space="preserve">
<symbol  id="New_Symbol_4" viewBox="-43.1 -52.2 86.3 104.4">
	<path fill="#B9CBD1" d="M38,52.2l-61.9,0c-2.8,0-5.2-2.3-5.2-5.2l0-70.2l18.6-17.5l48.5,0c2.8,0,5.2,2.3,5.2,5.2l0,82.6
		C43.1,49.9,40.8,52.2,38,52.2z"/>
	<path fill="#FFFFFF" stroke="#B9CBD1" stroke-width="2" stroke-miterlimit="10" d="M-37-51.2h61.9c2.8,0,5.2,2.3,5.2,5.2v70.2
		L11.5,41.7H-37c-2.8,0-5.2-2.3-5.2-5.2v-82.6C-42.1-48.9-39.8-51.2-37-51.2z"/>
	<g>
		<path fill="#B9CBD1" d="M-18.6-20.8v6.2h4.8v-6.2H-18.6z"/>
		<path fill="#B9CBD1" d="M-10.6-29.3c-1.1,0-2.1,0.2-3.1,0.5c-1,0.3-1.9,0.8-2.6,1.5l2.5,3.9c0.3-0.3,0.7-0.6,1.2-0.7
			c0.5-0.2,0.9-0.2,1.4-0.2c0.7,0,1.4,0.3,1.9,0.8c0.5,0.5,0.8,1.2,0.8,2.1V1.9h5.8V-21c0-1.2-0.2-2.3-0.6-3.4c-0.4-1-1-1.9-1.7-2.6
			c-0.7-0.7-1.5-1.3-2.5-1.7C-8.5-29.1-9.5-29.3-10.6-29.3z M-8.6,5v5.8h5.8V5H-8.6z"/>
		<path fill="#B9CBD1" d="M11.1-21.2c-1.9,0-3.8,0.3-5.6,0.9c-1.8,0.6-3.4,1.5-4.7,2.6L3-14.1c1.4-1,2.7-1.7,4-2.2
			c1.3-0.5,2.6-0.8,3.9-0.8c1.2,0,2.1,0.2,2.7,0.6c0.7,0.4,1,1.1,1,1.9c0,0.8-0.4,1.4-1.2,1.8c-0.8,0.4-2,0.8-3.8,1.3
			c-1.5,0.4-2.7,0.8-3.8,1.2C4.9-9.9,4-9.5,3.4-9C2.8-8.6,2.3-8,2-7.4C1.7-6.8,1.6-6,1.6-5.2C1.6-4,1.8-3,2.3-2.1
			c0.4,0.9,1.1,1.7,1.9,2.4C5,0.9,5.9,1.4,7,1.8c1.1,0.3,2.3,0.5,3.5,0.5c1.7,0,3.3-0.2,4.8-0.7c1.5-0.5,2.8-1.3,4.1-2.4L17-4.3
			c-1.2,0.9-2.3,1.5-3.4,1.9c-1.1,0.4-2.2,0.6-3.2,0.6C9.5-1.8,8.7-2,8-2.4C7.3-2.8,7-3.5,7-4.3c0-0.4,0.1-0.7,0.2-1
			C7.4-5.6,7.7-5.8,8-6c0.3-0.2,0.8-0.4,1.4-0.6c0.6-0.2,1.3-0.4,2.1-0.6c1.6-0.4,2.9-0.8,4-1.2c1.1-0.4,2-0.9,2.7-1.4
			c0.7-0.5,1.2-1.1,1.6-1.8c0.3-0.7,0.5-1.5,0.5-2.4c0-2.2-0.8-4-2.5-5.3C16.1-20.6,13.9-21.2,11.1-21.2z"/>
	</g>
	<path fill="none" stroke="#B9CBD1" stroke-width="2" stroke-miterlimit="10" d="M30.1,23.1c0,0-10.5-0.3-16.1-0.1
		c-2,0.1-3.6,1.7-3.6,3.7v14"/>
</symbol>
<use xlink:href="#New_Symbol_4"  width="86.3" height="104.4" id="XMLID_16_" x="-43.1" y="-52.2" transform="matrix(1 0 0 -1 43.1445 52.221)" overflow="visible"/>
</svg>
