<?xml version="1.0" encoding="utf-8"?>
<!-- Generator: Adobe Illustrator 21.1.0, SVG Export Plug-In . SVG Version: 6.00 Build 0)  -->
<svg version="1.1" id="Слой_1" xmlns="http://www.w3.org/2000/svg" xmlns:xlink="http://www.w3.org/1999/xlink" x="0px" y="0px"
	 viewBox="0 0 128 129.9" enable-background="new 0 0 128 129.9" xml:space="preserve">
<g>
	<path fill="#FFFFFF" stroke="#B9CBD1" stroke-width="2" stroke-miterlimit="10" d="M7.4,114.9c0,7.7,20.3,13.9,45.4,13.9
		s45.4-6.2,45.4-13.9c0-0.6,0.3-13.3,0-13.9c-3-6.8-22.4,0-45.4,0c-22,0-41.2-7.3-45.4-0.9C6.8,101,7.4,114,7.4,114.9z"/>
	<ellipse fill="#FFFFFF" stroke="#B9CBD1" stroke-width="2" stroke-miterlimit="10" cx="52.9" cy="100.1" rx="45.4" ry="13.9"/>
</g>
<path fill="#B9CBD1" d="M89.7,60.2c8.9,0,16.2-7.3,16.2-16.2c0-7.9-5.7-14.6-13.3-15.9c0.3-1.5,0.5-3.1,0.5-4.7
	C93,10.5,82.5,0,69.6,0c-9.8,0-18.3,6.1-21.7,14.7c-2.5-1.2-5.4-1.9-8.4-1.9c-9.4,0-17.3,6.7-19.1,15.6c-1.4-0.4-2.8-0.6-4.3-0.6
	C7.2,27.8,0,35.1,0,44s7.2,16.2,16.2,16.2H89.7z"/>
<g>
	<path fill="#FFFFFF" stroke="#B9CBD1" stroke-width="2" stroke-miterlimit="10" d="M7.4,97.3c0,7.7,20.3,13.9,45.4,13.9
		s45.4-6.2,45.4-13.9c0-0.6,0.3-13.3,0-13.9c-3-6.8-22.4,0-45.4,0c-22,0-41.2-7.3-45.4-0.9C6.8,83.4,7.4,96.4,7.4,97.3z"/>
	<ellipse fill="#FFFFFF" stroke="#B9CBD1" stroke-width="2" stroke-miterlimit="10" cx="52.9" cy="82.5" rx="45.4" ry="13.9"/>
</g>
<g>
	<path fill="#FFFFFF" stroke="#B9CBD1" stroke-width="2" stroke-miterlimit="10" d="M7.4,79.7c0,7.7,20.3,13.9,45.4,13.9
		s45.4-6.2,45.4-13.9c0-0.6,0.3-13.3,0-13.9c-3-6.8-22.4,0-45.4,0c-22,0-41.2-7.3-45.4-0.9C6.8,65.8,7.4,78.7,7.4,79.7z"/>
	<ellipse fill="#FFFFFF" stroke="#B9CBD1" stroke-width="2" stroke-miterlimit="10" cx="52.9" cy="64.9" rx="45.4" ry="13.9"/>
</g>
<g>
	<path fill="#FFFFFF" stroke="#B9CBD1" stroke-width="2" stroke-miterlimit="10" d="M7.4,62.1C7.4,69.8,27.8,76,52.9,76
		s45.4-6.2,45.4-13.9c0-0.6,0.3-13.3,0-13.9c-3-6.8-22.4,0-45.4,0c-22,0-41.2-7.3-45.4-0.9C6.8,48.1,7.4,61.1,7.4,62.1z"/>
	<ellipse fill="#FFFFFF" stroke="#B9CBD1" stroke-width="2" stroke-miterlimit="10" cx="52.9" cy="47.2" rx="45.4" ry="13.9"/>
</g>
<g>
	<g>
		<polygon fill="#B9CBD1" points="81.2,128.2 61.9,108.8 61.9,81.4 81.2,62.1 108.6,62.1 128,81.4 128,108.8 108.6,128.2 		"/>
		<path fill="#FFFFFF" d="M105.7,69.1L121,84.3v21.6l-15.3,15.3H84.1l-15.3-15.3V84.3l15.3-15.3H105.7 M107.8,64.1H82.1L63.9,82.3
			V108l18.2,18.2h25.7L126,108V82.3L107.8,64.1L107.8,64.1z"/>
	</g>
	<path fill="#FFFFFF" d="M102.7,104.1l-1.1,0c-0.2,0-0.4-0.2-0.4-0.4s0.2-0.4,0.4-0.4h3.4c1.3,0,2.4-1.1,2.4-2.4
		c0-1.3-1.1-2.4-2.4-2.4l-3,0c-0.2,0-0.4-0.2-0.4-0.4s0.2-0.4,0.4-0.4h4.5c1.3-0.1,2.3-1.1,2.3-2.4c0-1.3-1.1-2.4-2.4-2.4l-4.4,0
		c-0.2,0-0.4-0.2-0.4-0.4s0.2-0.4,0.4-0.4h3.1c1.3-0.1,2.3-1.1,2.3-2.4c0-1.3-1.1-2.4-2.4-2.4H95c1.1-1.8,2.5-3.8,2.9-6.2
		c0.4-2.5-0.5-4.3-1.7-5.2c-1.3-0.9-2.7-0.2-2.7,0.8c0,2.8-1.4,6.6-8.9,12.7c-0.3,0.2-0.5,0.4-0.6,0.6c-2,2-3.3,4.8-3.3,7.8
		c0,6.1,4.9,11,11,11c0,0,0.1,0,0.1,0c0,0,0,0,0,0h10.8c1.2,0,2.2-1,2.2-2.2S103.9,104.1,102.7,104.1z"/>
</g>
</svg>
