<?xml version="1.0" encoding="utf-8"?>
<!-- Generator: Adobe Illustrator 21.1.0, SVG Export Plug-In . SVG Version: 6.00 Build 0)  -->
<svg version="1.1" id="Слой_1" xmlns="http://www.w3.org/2000/svg" xmlns:xlink="http://www.w3.org/1999/xlink" x="0px" y="0px"
	 viewBox="0 0 165.3 120.5" enable-background="new 0 0 165.3 120.5" xml:space="preserve">
<g>
	<path fill="#E8EFF2" stroke="#B9CBD1" stroke-width="2" stroke-miterlimit="10" d="M164.3,4.9c0-2-1.2-3.9-3.2-3.9H5.3
		C3.3,1,1,2.9,1,4.9v7.3h163.3V4.9z"/>
	<path fill="#FFFFFF" stroke="#B9CBD1" stroke-width="2" stroke-miterlimit="10" d="M95.6,13.8l-2.3-6.9c-0.2-0.5-0.7-0.7-1.2-0.7
		H62.2c-0.8,0-1.6,0.5-1.6,1.3v10"/>
	<path fill="#FFFFFF" stroke="#B9CBD1" stroke-width="2" stroke-miterlimit="10" d="M66,13.8l-2.3-6.9c-0.2-0.5-0.8-0.7-1.3-0.7
		H32.5c-0.8,0-1.3,0.5-1.3,1.3v10"/>
	<g>
		<path fill="#FFFFFF" d="M3.8,119.5c-1.5,0-2.7-1.2-2.7-2.7L1.3,6c0-0.2,0.2-0.4,0.4-0.4h29.9c0.1,0,0.3,0.1,0.3,0.2l2.3,6.4h129.9
			v104.5c0,1.5-1.2,2.7-2.7,2.7H3.8z"/>
		<path fill="#B9CBD1" d="M31.2,6.6l1.9,5.3l0.5,1.3h1.4h128.2v103.5c0,0.9-0.8,1.7-1.7,1.7H3.8c-0.9,0-1.7-0.8-1.7-1.7L2.3,6.6
			H31.2 M31.6,4.6H1.7C0.9,4.6,0.3,5.3,0.3,6L0.1,116.8c0,2,1.7,3.7,3.7,3.7h157.6c2.1,0,3.7-1.7,3.7-3.7V11.3H34.9l-2.1-5.8
			C32.6,4.9,32.1,4.6,31.6,4.6L31.6,4.6z"/>
	</g>
	<line fill="none" stroke="#B9CBD1" stroke-width="2" stroke-miterlimit="10" x1="164.3" y1="6.2" x2="164.3" y2="12.2"/>
	<circle fill="#B9CBD1" cx="161.6" cy="15.6" r="0.7"/>
	<circle fill="#B9CBD1" cx="161.6" cy="18.4" r="0.7"/>
	<circle fill="#B9CBD1" cx="161.6" cy="21.2" r="0.7"/>
	<line fill="#FFFFFF" stroke="#B9CBD1" stroke-width="2" stroke-miterlimit="10" x1="165.1" y1="24.3" x2="1" y2="24.3"/>
	<path opacity="0.3" fill="#B9CBD1" stroke="#FFFFFF" stroke-miterlimit="10" d="M152.8,22.2H6c-1.1,0-1.9-0.9-1.9-1.9v-3.9
		c0-1.1,0.9-1.9,1.9-1.9h146.9c1.1,0,1.9,0.9,1.9,1.9v3.9C154.8,21.3,153.9,22.2,152.8,22.2z"/>
	<rect x="3.6" y="8.8" opacity="0.3" fill="#B9CBD1" width="24.2" height="1.7"/>
	<rect x="37.3" y="7.9" opacity="0.3" fill="#B9CBD1" width="11.2" height="1.7"/>
	<rect x="68.4" y="7.9" opacity="0.3" fill="#B9CBD1" width="18.1" height="1.7"/>
</g>
<rect x="14" y="39" fill="#B9CBD1" stroke="#FFFFFF" stroke-width="2" stroke-miterlimit="10" width="50.1" height="3.5"/>
<rect x="14" y="51.1" fill="#B9CBD1" stroke="#FFFFFF" stroke-width="2" stroke-miterlimit="10" width="50.1" height="3.5"/>
<rect x="14" y="63.2" fill="#B9CBD1" stroke="#FFFFFF" stroke-width="2" stroke-miterlimit="10" width="50.1" height="3.5"/>
<rect x="14" y="75.3" fill="#B9CBD1" stroke="#FFFFFF" stroke-width="2" stroke-miterlimit="10" width="50.1" height="3.5"/>
<rect x="71.8" y="39" fill="#B9CBD1" stroke="#FFFFFF" stroke-width="2" stroke-miterlimit="10" width="25.9" height="3.5"/>
<rect x="71.8" y="51.1" fill="#B9CBD1" stroke="#FFFFFF" stroke-width="2" stroke-miterlimit="10" width="25.9" height="3.5"/>
<rect x="71.8" y="63.2" fill="#B9CBD1" stroke="#FFFFFF" stroke-width="2" stroke-miterlimit="10" width="25.9" height="3.5"/>
<rect x="71.8" y="75.3" fill="#B9CBD1" stroke="#FFFFFF" stroke-width="2" stroke-miterlimit="10" width="25.9" height="3.5"/>
<rect x="14" y="86.5" fill="#FFFFFF" stroke="#B9CBD1" stroke-width="2" stroke-miterlimit="10" width="83.8" height="21.6"/>
<g>
	<path fill="#B9CBD1" d="M114.9,58h11.6c2.8,0,5-2.2,5-5V41.4c0-2.8-2.2-5-5-5h-11.6c-2.8,0-5,2.2-5,5V53
		C109.9,55.8,112.1,58,114.9,58z"/>
	<rect x="134.9" y="39" fill="#B9CBD1" width="19" height="1.7"/>
	<rect x="134.9" y="44.2" fill="#B9CBD1" width="19" height="1.7"/>
	<rect x="134.9" y="49.4" fill="#B9CBD1" width="19" height="1.7"/>
	<rect x="134.9" y="54.6" fill="#B9CBD1" width="19" height="1.7"/>
</g>
<g>
	<path fill="#B9CBD1" d="M114.9,83.1h11.6c2.8,0,5-2.2,5-5V66.5c0-2.8-2.2-5-5-5h-11.6c-2.8,0-5,2.2-5,5v11.6
		C109.9,80.8,112.1,83.1,114.9,83.1z"/>
	<rect x="134.9" y="64.1" fill="#B9CBD1" width="19" height="1.7"/>
	<rect x="134.9" y="69.2" fill="#B9CBD1" width="19" height="1.7"/>
	<rect x="134.9" y="74.4" fill="#B9CBD1" width="19" height="1.7"/>
	<rect x="134.9" y="79.6" fill="#B9CBD1" width="19" height="1.7"/>
</g>
<g>
	<path fill="#B9CBD1" d="M114.9,108.1h11.6c2.8,0,5-2.2,5-5V91.5c0-2.8-2.2-5-5-5h-11.6c-2.8,0-5,2.2-5,5v11.6
		C109.9,105.9,112.1,108.1,114.9,108.1z"/>
	<rect x="134.9" y="89.1" fill="#B9CBD1" width="19" height="1.7"/>
	<rect x="134.9" y="94.3" fill="#B9CBD1" width="19" height="1.7"/>
	<rect x="134.9" y="99.5" fill="#B9CBD1" width="19" height="1.7"/>
	<rect x="134.9" y="104.7" fill="#B9CBD1" width="19" height="1.7"/>
</g>
</svg>
