<?xml version="1.0" encoding="utf-8"?>
<!-- Generator: Adobe Illustrator 21.1.0, SVG Export Plug-In . SVG Version: 6.00 Build 0)  -->
<svg version="1.1" id="Слой_1" xmlns="http://www.w3.org/2000/svg" xmlns:xlink="http://www.w3.org/1999/xlink" x="0px" y="0px"
	 viewBox="0 0 152.7 130.3" enable-background="new 0 0 152.7 130.3" xml:space="preserve">
<line fill="none" stroke="#B9CBD1" stroke-miterlimit="10" x1="76.5" y1="99.7" x2="76.5" y2="29.9"/>
<g>
	<circle fill="#FFFFFF" stroke="#B9CBD1" stroke-width="2" stroke-miterlimit="10" cx="77.2" cy="117.6" r="11.7"/>
	<line fill="none" stroke="#B9CBD1" stroke-miterlimit="10" x1="76.7" y1="58.6" x2="47.1" y2="95.3"/>
	<path fill="#FFFFFF" stroke="#B9CBD1" stroke-width="2" stroke-miterlimit="10" d="M35.7,96.2c-5.9,2.5-7.5,10-3.2,14.7
		c2.6,2.9,6.8,3.8,10.4,2.3c5.9-2.5,7.5-10,3.2-14.7C43.6,95.6,39.3,94.7,35.7,96.2z"/>
	<line fill="none" stroke="#B9CBD1" stroke-miterlimit="10" x1="65" y1="46.7" x2="26.7" y2="74.2"/>
	
		<ellipse transform="matrix(0.9551 -0.2961 0.2961 0.9551 -23.2987 8.6002)" fill="#FFFFFF" stroke="#B9CBD1" stroke-width="2" stroke-miterlimit="10" cx="16.7" cy="81.2" rx="5.8" ry="5.8"/>
	<line fill="none" stroke="#B9CBD1" stroke-miterlimit="10" x1="62.6" y1="38.7" x2="16.8" y2="49.7"/>
	
		<ellipse transform="matrix(8.628502e-02 -0.9963 0.9963 8.628502e-02 -47.8469 52.8261)" fill="#FFFFFF" stroke="#B9CBD1" stroke-width="2" stroke-miterlimit="10" cx="4.9" cy="52.5" rx="3.9" ry="3.9"/>
	<line fill="none" stroke="#B9CBD1" stroke-miterlimit="10" x1="76" y1="58.6" x2="105.6" y2="95.3"/>
	<path fill="#FFFFFF" stroke="#B9CBD1" stroke-width="2" stroke-miterlimit="10" d="M116.9,96.2c5.9,2.5,7.5,10,3.2,14.7
		c-2.6,2.9-6.8,3.8-10.4,2.3c-5.9-2.5-7.5-10-3.2-14.7C109.1,95.6,113.4,94.7,116.9,96.2z"/>
	<line fill="none" stroke="#B9CBD1" stroke-miterlimit="10" x1="87.7" y1="46.7" x2="126" y2="74.2"/>
	
		<ellipse transform="matrix(0.2961 -0.9551 0.9551 0.2961 18.1067 186.9927)" fill="#FFFFFF" stroke="#B9CBD1" stroke-width="2" stroke-miterlimit="10" cx="135.9" cy="81.2" rx="5.8" ry="5.8"/>
	<line fill="none" stroke="#B9CBD1" stroke-miterlimit="10" x1="90.1" y1="38.7" x2="135.9" y2="49.7"/>
	
		<ellipse transform="matrix(0.9963 -8.628502e-02 8.628502e-02 0.9963 -3.9786 12.9481)" fill="#FFFFFF" stroke="#B9CBD1" stroke-width="2" stroke-miterlimit="10" cx="147.8" cy="52.5" rx="3.9" ry="3.9"/>
</g>
<path fill="#FFFFFF" stroke="#B9CBD1" stroke-miterlimit="10" d="M69.8,3.3L35.5,37.6c-3.8,3.8-3.8,9.9,0,13.7l34.3,34.3
	c3.8,3.8,9.9,3.8,13.7,0l34.3-34.3c3.8-3.8,3.8-9.9,0-13.7L83.5,3.3C79.7-0.4,73.6-0.4,69.8,3.3z"/>
<path fill="#B9CBD1" d="M73.4,15.5L48.2,40.7c-2,2-2,5.3,0,7.3l25.2,25.2c2,2,5.3,2,7.3,0L105.9,48c2-2,2-5.3,0-7.3L80.7,15.5
	C78.7,13.4,75.4,13.4,73.4,15.5z"/>
</svg>
