<?xml version="1.0" encoding="utf-8"?>
<!-- Generator: Adobe Illustrator 21.1.0, SVG Export Plug-In . SVG Version: 6.00 Build 0)  -->
<svg version="1.1" id="Слой_1" xmlns="http://www.w3.org/2000/svg" xmlns:xlink="http://www.w3.org/1999/xlink" x="0px" y="0px"
	 viewBox="0 0 16.1 13.7" enable-background="new 0 0 16.1 13.7" xml:space="preserve">
<g>
	<g>
		<path fill="#39B54A" d="M0.2,7.5c1.1,1.8,3.4,8.2,6.4,5.6c1.6-1.3,2.6-3.8,4-5.4c1.5-1.8,3.2-3.5,5-5.1c1.4-1.3-0.7-3.4-2.1-2.1
			C11.1,2.6,8.9,5,6.9,7.6C6.4,8.2,6,8.8,5.6,9.4c-0.3,0.4-0.5,0.7-0.7,1.1c-0.5,0.6-0.2,0.7,0.8,0.3C5.8,10.6,3.1,6.5,2.8,6
			C1.8,4.3-0.8,5.8,0.2,7.5L0.2,7.5z"/>
	</g>
</g>
</svg>
