<?xml version="1.0" encoding="utf-8"?>
<!-- Generator: Adobe Illustrator 21.1.0, SVG Export Plug-In . SVG Version: 6.00 Build 0)  -->
<svg version="1.1" id="Слой_1" xmlns="http://www.w3.org/2000/svg" xmlns:xlink="http://www.w3.org/1999/xlink" x="0px" y="0px"
	 viewBox="0 0 92 83.7" enable-background="new 0 0 92 83.7" xml:space="preserve">
<path fill="#FFFFFF" stroke="#B9CBD1" stroke-width="2" stroke-miterlimit="10" d="M22.1,25.5c5.5,0,10-5.2,10-11.7
	C32,4.9,27.6,1,22.1,1c-5.5,0-10,3.9-10,12.8C12.1,20.3,16.6,25.5,22.1,25.5L22.1,25.5z M22.9,19.7"/>
<path fill="#FFFFFF" stroke="#B9CBD1" stroke-width="2" stroke-miterlimit="10" d="M45,49.8l-5-13.6c-0.2-0.5-0.6-0.9-1.1-1.2L31,31
	c-0.2-0.1-0.4-0.1-0.5,0c-2.2,1.7-4.8,2.5-7.5,2.5c-2.7,0-5.3-0.9-7.5-2.5c-0.2-0.1-0.4-0.1-0.5,0l-7.8,4.1
	c-0.5,0.3-0.9,0.7-1.1,1.2l-5,13.6 M45,49.8"/>
<path fill="none" stroke="#FFFFFF" stroke-width="1.5514" stroke-linecap="round" stroke-linejoin="round" stroke-miterlimit="10" d="
	M25.9,36.7"/>
<g>
	
		<circle fill="#FFFFFF" stroke="#009245" stroke-width="1.5514" stroke-linecap="round" stroke-linejoin="round" stroke-miterlimit="10" cx="48.1" cy="45.8" r="16.5"/>
	
		<path fill="none" stroke="#FFFFFF" stroke-width="1.5514" stroke-linecap="round" stroke-linejoin="round" stroke-miterlimit="10" d="
		M40.6,41.9"/>
	<g>
		
			<polyline fill="none" stroke="#009245" stroke-width="1.5514" stroke-linecap="round" stroke-linejoin="round" stroke-miterlimit="10" points="
			38.4,44.2 46.2,51.5 57.5,39.5 		"/>
	</g>
</g>
<line fill="#FFFFFF" stroke="#B9CBD1" stroke-width="2" stroke-miterlimit="10" x1="49" y1="3.2" x2="92" y2="3.2"/>
<line fill="#FFFFFF" stroke="#B9CBD1" stroke-width="2" stroke-miterlimit="10" x1="56" y1="18.2" x2="92" y2="18.2"/>
<line fill="#FFFFFF" stroke="#B9CBD1" stroke-width="2" stroke-miterlimit="10" x1="72" y1="33.2" x2="90" y2="33.2"/>
</svg>
