<?xml version="1.0" encoding="utf-8"?>
<!-- Generator: Adobe Illustrator 21.1.0, SVG Export Plug-In . SVG Version: 6.00 Build 0)  -->
<svg version="1.1" id="Слой_1" xmlns="http://www.w3.org/2000/svg" xmlns:xlink="http://www.w3.org/1999/xlink" x="0px" y="0px"
	 viewBox="0 0 125.9 71.8" enable-background="new 0 0 125.9 71.8" xml:space="preserve">
<g>
	<g>
		
			<line fill="none" stroke="#009245" stroke-width="1.5514" stroke-linecap="round" stroke-linejoin="round" stroke-miterlimit="10" x1="45.5" y1="36.7" x2="52.5" y2="36.7"/>
		
			<line fill="none" stroke="#009245" stroke-width="1.5514" stroke-linecap="round" stroke-linejoin="round" stroke-miterlimit="10" x1="73.4" y1="36.7" x2="81.2" y2="36.7"/>
		<g>
			<circle fill="#FFFFFF" stroke="#B9CBD1" stroke-width="2" stroke-miterlimit="10" cx="35.9" cy="63.3" r="7.5"/>
			<circle fill="#FFFFFF" stroke="#B9CBD1" stroke-width="2" stroke-miterlimit="10" cx="35.9" cy="8.5" r="7.5"/>
		</g>
		<circle fill="#FFFFFF" stroke="#B9CBD1" stroke-width="2" stroke-miterlimit="10" cx="8.5" cy="35.9" r="7.5"/>
		<circle fill="#FFFFFF" stroke="#B9CBD1" stroke-width="2" stroke-miterlimit="10" cx="117.4" cy="35.9" r="7.5"/>
		
			<circle fill="none" stroke="#009245" stroke-width="1.5514" stroke-linecap="round" stroke-linejoin="round" stroke-miterlimit="10" cx="65.3" cy="35.9" r="7.5"/>
		
			<path fill="none" stroke="#009245" stroke-width="1.5514" stroke-linecap="round" stroke-linejoin="round" stroke-miterlimit="10" d="
			M75.5,44.1c-2.4,2.9-6,4.8-10.1,4.8c-7.2,0-13-5.8-13-13s5.8-13,13-13c3.9,0,7.3,1.7,9.7,4.3"/>
		<circle fill="#FFFFFF" stroke="#B9CBD1" stroke-width="2" stroke-miterlimit="10" cx="35.9" cy="35.9" r="9.6"/>
		<circle fill="#FFFFFF" stroke="#B9CBD1" stroke-width="2" stroke-miterlimit="10" cx="90.7" cy="35.9" r="9.6"/>
		<line fill="#FFFFFF" stroke="#B9CBD1" stroke-width="2" stroke-miterlimit="10" x1="35.4" y1="46" x2="35.4" y2="56"/>
		<line fill="#FFFFFF" stroke="#B9CBD1" stroke-width="2" stroke-miterlimit="10" x1="35.4" y1="16" x2="35.4" y2="26"/>
		<g>
			<circle fill="#FFFFFF" stroke="#B9CBD1" stroke-width="2" stroke-miterlimit="10" cx="90.7" cy="63.3" r="7.5"/>
			<circle fill="#FFFFFF" stroke="#B9CBD1" stroke-width="2" stroke-miterlimit="10" cx="90.7" cy="8.5" r="7.5"/>
		</g>
		<line fill="#FFFFFF" stroke="#B9CBD1" stroke-width="2" stroke-miterlimit="10" x1="89.4" y1="46" x2="89.4" y2="56"/>
		<line fill="#FFFFFF" stroke="#B9CBD1" stroke-width="2" stroke-miterlimit="10" x1="89.4" y1="16" x2="89.4" y2="26"/>
		<line fill="#FFFFFF" stroke="#B9CBD1" stroke-width="2" stroke-miterlimit="10" x1="16.4" y1="37" x2="25.4" y2="37"/>
		<line fill="#FFFFFF" stroke="#B9CBD1" stroke-width="2" stroke-miterlimit="10" x1="100.4" y1="37" x2="110.4" y2="37"/>
	</g>
</g>
</svg>
